# xmcd
#
# Track frame offsets:
#	150
#	21494
#	39433
#	55251
#	75711
#	93509
#	108852
#	121536
#	140514
#	159053
#	174766
#	189878
#	204857
#	221405
#	234499
#	245664
#
# Disc length: 3430 seconds
#
# Revision: 2
# Processed by: cddbd v1.5.2PL0 Copyright (c) Steve Scherf et al.
# Submitted via: audiograbber 1.83.01
#
DISCID=c00d6410
DTITLE=Various Artist - Country Love Songs
DYEAR=1998
DGENRE=Country
TTITLE0=Trisha Yearwood - On A Bus To St. Cloud
TTITLE1=Vince Gill - I Still Believe In You
TTITLE2=John Berry - I Give My Heart
TTITLE3=Suzy Bogguss - Letting Go
TTITLE4=Lee Greenwood - The Wind Beneath My Wings
TTITLE5=Kenny Rogers - For The Good Times
TTITLE6=Don Williams - You're My Best Friend
TTITLE7=Dan Seals - Addicted
TTITLE8=Juice Newton - The Sweetest Thing (I've Ever Known)
TTITLE9=Johnny Rodriguez - I Didn't (Every Chance I Had)
TTITLE10=Jesse Colter - I'm Not Lisa
TTITLE11=Kenny Dale - Bluest Heartache Of The Year
TTITLE12=Tanya Tucker - I Won't Take Less Than Your Love
TTITLE13=Crystal Gayle - Talkin' In Your Sleep
TTITLE14=Conway Twitty - It's Only Make Believe
TTITLE15=Patsy Cline - Sweet Dreams (Of You)
EXTD=
EXTT0=
EXTT1=
EXTT2=
EXTT3=
EXTT4=
EXTT5=
EXTT6=
EXTT7=
EXTT8=
EXTT9=
EXTT10=
EXTT11=
EXTT12=
EXTT13=
EXTT14=
EXTT15=
PLAYORDER=
